<svg xmlns="http://www.w3.org/2000/svg" viewBox="0 0 1778 377"><path fill="#141414" fill-rule="evenodd" d="M1577,16C1570,18.2 1566.7,19.8 1561,23C1555.3,26.2 1548.2,30.8 1543,35C1537.8,39.2 1534.3,42.3 1530,48C1525.7,53.7 1520.3,62.2 1517,69C1513.7,75.8 1512,81.3 1510,89C1508,96.7 1506,107 1505,115C1504,123 1503.5,130 1504,137C1504.5,144 1505.3,150.5 1508,157C1510.7,163.5 1514.8,170.3 1520,176C1525.2,181.7 1531.3,186.7 1539,191C1546.7,195.3 1549.2,196.7 1566,202C1582.8,207.3 1624.8,218.3 1640,223C1655.2,227.7 1652,227.5 1657,230C1662,232.5 1666.5,235.5 1670,238C1673.5,240.5 1675.3,241.7 1678,245C1680.7,248.3 1684.7,252.8 1686,258C1687.3,263.2 1686.8,271.3 1686,276C1685.2,280.7 1683.2,283.2 1681,286C1678.8,288.8 1676.5,291 1673,293C1669.5,295 1664.8,297 1660,298C1655.2,299 1649.5,299.3 1644,299C1638.5,298.7 1631.8,297.5 1627,296C1622.2,294.5 1619,293 1615,290C1611,287 1606.3,282.7 1603,278C1599.7,273.3 1597.2,265.2 1595,262C1592.8,258.8 1604,259 1590,259C1576,259 1525.2,261.2 1511,262C1496.8,262.8 1506.7,262.7 1505,264C1503.3,265.3 1501,266 1501,270C1501,274 1502,280.7 1505,288C1508,295.3 1513.2,306 1519,314C1524.8,322 1532.8,329.8 1540,336C1547.2,342.2 1555.5,347.2 1562,351C1568.5,354.8 1571.7,356.3 1579,359C1586.3,361.7 1596.3,365 1606,367C1615.7,369 1624.7,370.5 1637,371C1649.3,371.5 1668.2,371.3 1680,370C1691.8,368.7 1701.2,365.2 1708,363C1714.8,360.8 1716.3,359.7 1721,357C1725.7,354.3 1730.7,351.5 1736,347C1741.3,342.5 1747.5,337.2 1753,330C1758.5,322.8 1764.8,313.5 1769,304C1773.2,294.5 1776.5,282.3 1778,273C1779.5,263.7 1778.8,255.2 1778,248C1777.2,240.8 1775,235.2 1773,230C1771,224.8 1769.3,221.8 1766,217C1762.7,212.2 1759.7,207.2 1753,201C1746.3,194.8 1736.8,186.7 1726,180C1715.2,173.3 1703.3,167.2 1688,161C1672.7,154.8 1646.7,147.7 1634,143C1621.3,138.3 1617.3,136.7 1612,133C1606.7,129.3 1603.8,125.7 1602,121C1600.2,116.3 1600.3,109.5 1601,105C1601.7,100.5 1603.5,97.5 1606,94C1608.5,90.5 1611.8,86.7 1616,84C1620.2,81.3 1626.2,79.2 1631,78C1635.8,76.8 1640.7,76.8 1645,77C1649.3,77.2 1653,77.7 1657,79C1661,80.3 1665.5,82.3 1669,85C1672.5,87.7 1675.5,91.2 1678,95C1680.5,98.8 1682,105.2 1684,108C1686,110.8 1676.2,111.2 1690,112C1703.8,112.8 1753.3,113.5 1767,113C1780.7,112.5 1771,110.8 1772,109C1773,107.2 1774,107.8 1773,102C1772,96.2 1768.7,81.7 1766,74C1763.3,66.3 1761.3,62.2 1757,56C1752.7,49.8 1744.5,41.3 1740,37C1735.5,32.7 1735.3,32.8 1730,30C1724.7,27.2 1715.8,22.7 1708,20C1700.2,17.3 1695,15.8 1683,14C1671,12.2 1649.3,9.7 1636,9C1622.7,8.3 1612.8,8.8 1603,10C1593.2,11.2 1584,13.8 1577,16ZM1221,11C1210.7,12.2 1205.3,14.2 1199,16C1192.7,17.8 1190.8,18 1183,22C1175.2,26 1162.3,32.2 1152,40C1141.7,47.8 1129.3,60.2 1121,69C1112.7,77.8 1108.5,83.3 1102,93C1095.5,102.7 1086.8,116.3 1082,127C1077.2,137.7 1074.7,145.8 1073,157C1071.3,168.2 1071.3,182.7 1072,194C1072.7,205.3 1074.2,213.7 1077,225C1079.8,236.3 1084.8,251.7 1089,262C1093.2,272.3 1095.5,277 1102,287C1108.5,297 1121.2,313.7 1128,322C1134.8,330.3 1137.5,332.2 1143,337C1148.5,341.8 1152.3,345.8 1161,351C1169.7,356.2 1184.5,364 1195,368C1205.5,372 1213.7,373.5 1224,375C1234.3,376.5 1244.3,377.5 1257,377C1269.7,376.5 1287,374.7 1300,372C1313,369.3 1324,365.7 1335,361C1346,356.3 1356.5,350.7 1366,344C1375.5,337.3 1384.5,329.2 1392,321C1399.5,312.8 1406.2,302.7 1411,295C1415.8,287.3 1418.2,281.7 1421,275C1423.8,268.3 1425.7,264 1428,255C1430.3,246 1433.2,233.3 1435,221C1436.8,208.7 1438.3,194.2 1439,181C1439.7,167.8 1439.3,150.7 1439,142C1438.7,133.3 1438.3,134.5 1437,129C1435.7,123.5 1433.2,114.7 1431,109C1428.8,103.3 1427.3,100.3 1424,95C1420.7,89.7 1417.2,83.7 1411,77C1404.8,70.3 1395.7,61.7 1387,55C1378.3,48.3 1368.7,42.3 1359,37C1349.3,31.7 1339.7,27 1329,23C1318.3,19 1306.3,15.3 1295,13C1283.7,10.7 1273.3,9.3 1261,9C1248.7,8.7 1231.3,9.8 1221,11ZM1224,87C1229.8,85.2 1234,84.5 1240,84C1246,83.5 1251.2,82.7 1260,84C1268.8,85.3 1284.8,89.3 1293,92C1301.2,94.7 1303.2,96.5 1309,100C1314.8,103.5 1322,108 1328,113C1334,118 1340.5,124.3 1345,130C1349.5,135.7 1352.5,141.2 1355,147C1357.5,152.8 1359,157.3 1360,165C1361,172.7 1361.5,183.8 1361,193C1360.5,202.2 1358.5,212.8 1357,220C1355.5,227.2 1354,230.8 1352,236C1350,241.2 1348.2,245.7 1345,251C1341.8,256.3 1337,263.3 1333,268C1329,272.7 1326.7,275.2 1321,279C1315.3,282.8 1307,288 1299,291C1291,294 1281,296 1273,297C1265,298 1258,297.7 1251,297C1244,296.3 1236,294.3 1231,293C1226,291.7 1225.3,291.3 1221,289C1216.7,286.7 1209.8,282.7 1205,279C1200.2,275.3 1196.3,271.8 1192,267C1187.7,262.2 1183,256.7 1179,250C1175,243.3 1170.7,234.2 1168,227C1165.3,219.8 1164.2,213.3 1163,207C1161.8,200.7 1161.2,196.2 1161,189C1160.8,181.8 1161,171.8 1162,164C1163,156.2 1164.3,149.3 1167,142C1169.7,134.7 1173.2,126.8 1178,120C1182.8,113.2 1191.5,105.2 1196,101C1200.5,96.8 1200.3,97.3 1205,95C1209.7,92.7 1218.2,88.8 1224,87ZM167,1C154.3,1.8 141.5,4.7 132,7C122.5,9.3 116.2,12.3 110,15C103.8,17.7 100.7,19.3 95,23C89.3,26.7 82.8,31 76,37C69.2,43 60,52.5 54,59C48,65.5 45.3,68.7 40,76C34.7,83.3 27.5,92.7 22,103C16.5,113.3 10.7,125.5 7,138C3.3,150.5 1.2,165.5 0,178C-1.2,190.5-0.7,202.5 0,213C0.7,223.5 1.7,231 4,241C6.3,251 9.8,263.2 14,273C18.2,282.8 23.8,292.3 29,300C34.2,307.7 40.5,314.2 45,319C49.5,323.8 49.5,324.2 56,329C62.5,333.8 75.2,342.8 84,348C92.8,353.2 100.5,356.5 109,360C117.5,363.5 124.5,366.3 135,369C145.5,371.7 161.3,374.8 172,376C182.7,377.2 189.2,377 199,376C208.8,375 219.2,373.3 231,370C242.8,366.7 257.8,361.5 270,356C282.2,350.5 294.2,344 304,337C313.8,330 320.8,323.7 329,314C337.2,304.3 346.8,289.5 353,279C359.2,268.5 362.3,261.2 366,251C369.7,240.8 373.2,230.2 375,218C376.8,205.8 377.8,190.5 377,178C376.2,165.5 373.5,154.3 370,143C366.5,131.7 361.7,121 356,110C350.3,99 341.7,85.5 336,77C330.3,68.5 327.2,64.8 322,59C316.8,53.2 312.7,48.2 305,42C297.3,35.8 285.7,27.3 276,22C266.3,16.7 258.3,13.3 247,10C235.7,6.7 221.3,3.5 208,2C194.7,0.5 179.7,0.2 167,1ZM182,77C191.3,76.7 204,78.3 212,80C220,81.7 224.3,84 230,87C235.7,90 240.8,93.5 246,98C251.2,102.5 256.7,108.3 261,114C265.3,119.7 269,125.8 272,132C275,138.2 277.2,143.8 279,151C280.8,158.2 282.3,167.3 283,175C283.7,182.7 283.5,189.7 283,197C282.5,204.3 281.7,211.7 280,219C278.3,226.3 276,234.2 273,241C270,247.8 266.3,254.2 262,260C257.7,265.8 251.2,272.2 247,276C242.8,279.8 241.2,280.7 237,283C232.8,285.3 228.3,288 222,290C215.7,292 207.8,294.2 199,295C190.2,295.8 176,295.3 169,295C162,294.7 161.7,294.2 157,293C152.3,291.8 147,290.8 141,288C135,285.2 126.5,280.2 121,276C115.5,271.8 112,268.2 108,263C104,257.8 99.8,250.8 97,245C94.2,239.2 92.7,234.3 91,228C89.3,221.7 87.8,214.2 87,207C86.2,199.8 85.7,192.5 86,185C86.3,177.5 87.2,169.8 89,162C90.8,154.2 93.7,145.3 97,138C100.3,130.7 103.7,124.8 109,118C114.3,111.2 124,101.7 129,97C134,92.3 134.5,92.5 139,90C143.5,87.5 148.8,84.2 156,82C163.2,79.8 172.7,77.3 182,77ZM859,6C856.8,2.5 860.7,2 849,1C837.3,0 802.8,-0.2 789,0C775.2,0.2 771.3,0.5 766,2C760.7,3.5 765.8,-7.5 757,9C748.2,25.5 728.8,62.8 713,101C697.2,139.2 671.5,214 662,238C652.5,262 657.7,243.8 656,245C654.3,246.2 653.2,245.5 652,245C650.8,244.5 650.8,245.2 649,242C647.2,238.8 649,247.3 641,226C633,204.7 615,149.8 601,114C587,78.2 565.8,29.2 557,11C548.2,-7.2 560,6 548,5C536,4 500.8,4.7 485,5C469.2,5.3 459,5.8 453,7C447,8.2 449.8,10.2 449,12C448.2,13.8 448.3,-0.7 448,18C447.7,36.7 446.5,95.7 447,124C447.5,152.3 450.7,158.5 451,188C451.3,217.5 448.8,272.3 449,301C449.2,329.7 451.2,349.2 452,360C452.8,370.8 452.8,364.3 454,366C455.2,367.7 448,368.8 459,370C470,371.2 507,372.7 520,373C533,373.3 533.3,373 537,372C540.7,371 541,374.3 542,367C543,359.7 543.5,340.8 543,328C542.5,315.2 539.8,303.2 539,290C538.2,276.8 537,267.7 538,249C539,230.3 543.2,190.7 545,178C546.8,165.3 547.7,173.3 549,173C550.3,172.7 551.8,174.5 553,176C554.2,177.5 552.2,169.8 556,182C559.8,194.2 568.3,228.2 576,249C583.7,269.8 594.7,288.7 602,307C609.3,325.3 616.3,349.2 620,359C623.7,368.8 621.8,364.3 624,366C626.2,367.7 623.3,368.7 633,369C642.7,369.3 673,368.5 682,368C691,367.5 684.8,368.3 687,366C689.2,363.7 689,366.7 695,354C701,341.3 716,307.3 723,290C730,272.7 731.7,267 737,250C742.3,233 751,200.5 755,188C759,175.5 759.2,177.7 761,175C762.8,172.3 764.5,171 766,172C767.5,173 768.3,165.5 770,181C771.7,196.5 775.2,241.8 776,265C776.8,288.2 775.7,304.7 775,320C774.3,335.3 772.3,349.5 772,357C771.7,364.5 772.2,362.8 773,365C773.8,367.2 775.2,368.8 777,370C778.8,371.2 777.3,371.3 784,372C790.7,372.7 806,373.7 817,374C828,374.3 843.7,374.3 850,374C856.3,373.7 853.5,373.5 855,372C856.5,370.5 858.2,385.5 859,365C859.8,344.5 858.8,286.3 860,249C861.2,211.7 865.2,171.2 866,141C866.8,110.8 865.7,87.8 865,68C864.3,48.2 863,32.3 862,22C861,11.7 861.2,9.5 859,6Z"/></svg>